<?xml version="1.0" encoding="UTF-8" standalone="no"?>
<svg
   xmlns:dc="http://purl.org/dc/elements/1.1/"
   xmlns:cc="http://creativecommons.org/ns#"
   xmlns:rdf="http://www.w3.org/1999/02/22-rdf-syntax-ns#"
   xmlns:svg="http://www.w3.org/2000/svg"
   xmlns="http://www.w3.org/2000/svg"
   viewBox="0 0 340.13333 98.693336"
   height="98.693336"
   width="340.13333"
   xml:space="preserve"
   id="svg2"
   version="1.1"><metadata
     id="metadata8"><rdf:RDF><cc:Work
         rdf:about=""><dc:format>image/svg+xml</dc:format><dc:type
           rdf:resource="http://purl.org/dc/dcmitype/StillImage" /><dc:title></dc:title></cc:Work></rdf:RDF></metadata><defs
     id="defs6" /><g
     transform="matrix(1.3333333,0,0,-1.3333333,0,98.693333)"
     id="g10"><g
       transform="scale(0.1)"
       id="g12"><path
         id="path14"
         style="fill:#231f20;fill-opacity:1;fill-rule:nonzero;stroke:none"
         d="M 240.496,47.0039 44.6406,242.855 V 448.074 H 245.535 V 214.059 H 491.086 V 448.074 H 691.25 V 242.855 L 495.398,47.0039 Z m 246.262,22.3164 182.18,182.1837 0.718,174.254 v 0 0 H 513.398 V 191.734 H 223.215 V 425.758 H 66.9648 V 251.504 L 249.863,69.3203 Z M 468.75,236.379 v 234.019 h 222.5 v 0 0 0 27.364 L 495.398,693.617 H 240.496 L 44.6406,497.762 V 470.398 H 267.859 V 236.379 Z M 290.176,258.707 V 492.723 H 71.2813 L 249.863,671.297 H 486.758 L 665.332,492.723 v 0 0 H 446.438 V 258.707 Z M 231.855,24.6758 22.3164,234.219 V 506.402 L 231.855,715.941 H 504.043 L 713.574,506.402 V 234.219 L 504.043,24.6758 Z M 513.398,2.35938 735.898,225.574 v 289.469 l -222.5,223.219 H 223.215 L 0,515.043 v 0 0 -289.469 L 223.215,2.35938 Z M 2041.92,1.69531 1962.4,124.926 V 1.69531 h -39.2 V 202.48 h 34.97 L 2037.7,79.5273 V 202.48 h 39.19 V 1.69531 Z m -290.46,0 V 202.48 h 132.26 v -34.972 h -93.06 v -47.094 h 79.24 V 85.4492 h -79.24 v -48.789 h 93.06 V 1.69531 Z M 1669.55,137.758 c -1.04,7.238 -3.34,13.019 -6.91,17.344 -6.77,8.273 -16.55,12.406 -29.33,12.406 H 1603.7 V 36.6602 h 29.61 c 12.78,0 22.56,4.1367 29.33,12.4101 3.57,4.3242 5.87,10.293 6.91,17.9063 1.03,7.6132 1.54,19.6015 1.54,35.9574 0,15.976 -0.51,27.582 -1.54,34.824 z m 37.22,-86.1525 C 1704.41,39.9492 1698.82,29.707 1689.99,20.8672 1683.6,14.4766 1675.84,9.68359 1666.72,6.48828 1657.6,3.29297 1647.69,1.69531 1636.97,1.69531 H 1564.5 V 202.48 h 72.47 c 10.72,0 20.63,-1.601 29.75,-4.796 9.12,-3.196 16.88,-7.993 23.27,-14.383 4.7,-4.512 8.41,-9.399 11.14,-14.664 2.72,-5.262 4.74,-11.043 6.06,-17.344 1.32,-6.297 2.16,-13.066 2.54,-20.301 0.37,-7.242 0.56,-16.594 0.56,-28.058 0,-22.5629 -1.17,-39.6723 -3.52,-51.3285 z M 1505.56,16.2148 C 1491.65,5.40625 1473.79,0 1451.98,0 c -15.79,0 -29.56,2.01953 -41.31,6.0625 -11.75,4.043 -22.42,10.8633 -32.01,20.4453 l 25.38,25.3828 c 6.02,-6.0234 13.12,-10.3437 21.3,-12.9726 8.17,-2.6328 17.24,-3.9492 27.21,-3.9492 23.69,0 35.53,8.2734 35.53,24.8164 0,6.9531 -1.79,12.3593 -5.36,16.2148 -3.57,3.8516 -9.78,6.4375 -18.61,7.7539 l -11.28,1.6953 -12.97,1.6875 c -17.11,2.4414 -30.08,7.9922 -38.92,16.6403 -9.59,9.586 -14.38,22.746 -14.38,39.481 0,18.23 6.3,32.949 18.89,44.133 12.6,11.183 29.61,16.781 51.04,16.781 14.11,0 26.32,-1.832 36.66,-5.5 10.34,-3.668 19.75,-9.641 28.21,-17.906 l -24.82,-24.536 c -5.64,5.45 -11.89,9.118 -18.75,10.997 -6.87,1.878 -14.34,2.824 -22.42,2.824 -9.97,0 -17.63,-2.399 -22.99,-7.196 -5.35,-4.792 -8.03,-10.851 -8.03,-18.187 0,-5.266 2.07,-10.012 6.2,-14.238 4.13,-4.235 10.25,-6.91 18.33,-8.039 l 12.13,-1.692 11.56,-1.695 c 9.02,-1.313 16.59,-3.199 22.7,-5.641 6.11,-2.441 11.33,-5.73 15.65,-9.867 10.34,-9.7772 15.51,-23.9687 15.51,-42.5819 0,-18.9883 -6.96,-33.8868 -20.87,-44.6993 z M 1224.98,1.69531 V 202.48 h 132.25 v -34.972 h -93.06 v -47.094 h 79.24 V 85.4492 h -79.24 v -48.789 h 93.06 V 1.69531 Z M 1136.15,160.18 c -5.27,4.883 -12.13,7.328 -20.59,7.328 h -36.94 v -53.016 h 36.94 c 8.46,0 15.32,2.442 20.59,7.332 5.26,4.891 7.89,11.281 7.89,19.176 0,7.895 -2.63,14.289 -7.89,19.18 z m 9.87,-158.48469 -39.2,80.08599 h -28.2 V 1.69531 h -39.2 V 202.48 h 78.68 c 9.96,0 19.03,-1.601 27.21,-4.796 8.18,-3.196 15.09,-7.618 20.73,-13.254 5.64,-5.641 9.91,-12.172 12.83,-19.602 2.91,-7.426 4.37,-15.363 4.37,-23.828 0,-13.348 -3.48,-24.531 -10.43,-33.555 -6.96,-9.027 -15.7,-15.4177 -26.23,-19.1794 L 1191.42,1.69531 Z M 957.504,137.758 c -1.035,7.238 -3.34,13.019 -6.906,17.344 -6.77,8.273 -16.551,12.406 -29.332,12.406 h -29.61 V 36.6602 h 29.61 c 12.781,0 22.562,4.1367 29.332,12.4101 3.566,4.3242 5.871,10.293 6.906,17.9063 1.031,7.6132 1.551,19.6015 1.551,35.9574 0,15.976 -0.52,27.582 -1.551,34.824 z M 994.727,51.6055 C 992.371,39.9492 986.781,29.707 977.949,20.8672 971.559,14.4766 963.801,9.68359 954.684,6.48828 945.563,3.29297 935.648,1.69531 924.934,1.69531 H 852.461 V 202.48 h 72.473 c 10.714,0 20.629,-1.601 29.75,-4.796 9.117,-3.196 16.875,-7.993 23.265,-14.383 4.699,-4.512 8.414,-9.399 11.137,-14.664 2.727,-5.262 4.746,-11.043 6.066,-17.344 1.313,-6.297 2.157,-13.066 2.539,-20.301 0.372,-7.242 0.563,-16.594 0.563,-28.058 0,-22.5629 -1.18,-39.6723 -3.527,-51.3285 z M 2496.96,435.512 V 269.695 h -39.2 v 165.817 h -52.45 v 34.972 h 144.1 v -34.972 z m -143.08,71.613 v -35.289 h 34.57 v 35.289 h -34.57 z m -94.33,0 h 34.56 v -35.289 h -34.56 v 35.289 z m 63.98,-95.867 -25.38,-73.035 h 49.91 z m 46.81,-141.563 -11.84,35.535 h -71.35 l -12.13,-35.535 h -40.88 l 73.03,200.789 h 30.74 l 73.32,-200.789 z M 2187.61,435.512 V 269.695 h -39.2 v 165.817 h -52.45 v 34.972 h 144.1 V 435.512 Z M 2023.77,269.695 v 200.789 h 39.19 V 269.695 Z m -58.94,14.524 c -13.91,-10.813 -31.77,-16.215 -53.58,-16.215 -15.79,0 -29.57,2.019 -41.31,6.062 -11.75,4.043 -22.42,10.86 -32.01,20.446 l 25.38,25.379 c 6.02,-6.02 13.12,-10.34 21.29,-12.973 8.18,-2.633 17.25,-3.945 27.22,-3.945 23.68,0 35.53,8.273 35.53,24.816 0,6.953 -1.79,12.356 -5.36,16.215 -3.57,3.851 -9.78,6.434 -18.61,7.754 l -11.28,1.695 -12.97,1.688 c -17.11,2.441 -30.09,7.988 -38.92,16.64 -9.59,9.586 -14.38,22.746 -14.38,39.477 0,18.234 6.29,32.953 18.89,44.137 12.59,11.183 29.61,16.777 51.04,16.777 14.1,0 26.32,-1.832 36.66,-5.496 10.34,-3.668 19.74,-9.641 28.21,-17.906 l -24.82,-24.536 c -5.64,5.45 -11.89,9.114 -18.75,10.996 -6.87,1.879 -14.35,2.821 -22.43,2.821 -9.96,0 -17.62,-2.399 -22.98,-7.192 -5.36,-4.796 -8.04,-10.855 -8.04,-18.187 0,-5.266 2.07,-10.012 6.21,-14.238 4.13,-4.235 10.24,-6.911 18.33,-8.039 l 12.12,-1.696 11.57,-1.691 c 9.02,-1.317 16.59,-3.199 22.7,-5.641 6.1,-2.441 11.32,-5.734 15.65,-9.867 10.34,-9.777 15.51,-23.973 15.51,-42.586 0,-18.988 -6.96,-33.887 -20.87,-44.695 z m -197.68,143.965 c -5.26,4.882 -12.12,7.328 -20.58,7.328 h -36.95 v -53.016 h 36.95 c 8.46,0 15.32,2.442 20.58,7.332 5.26,4.887 7.9,11.281 7.9,19.176 0,7.894 -2.64,14.285 -7.9,19.18 z m 9.87,-158.489 -39.19,80.09 h -28.21 v -80.09 h -39.19 v 200.789 h 78.68 c 9.96,0 19.03,-1.601 27.21,-4.796 8.18,-3.2 15.09,-7.618 20.73,-13.258 5.64,-5.637 9.91,-12.172 12.83,-19.598 2.91,-7.426 4.37,-15.367 4.37,-23.828 0,-13.352 -3.48,-24.531 -10.44,-33.555 -6.95,-9.027 -15.69,-15.422 -26.22,-19.179 l 44.84,-86.575 z m -278.33,0 v 200.789 h 132.26 v -34.972 h -93.06 v -47.094 h 79.24 v -34.965 h -79.24 v -48.789 h 93.06 v -34.969 z m -91.93,0 h -29.33 l -66.27,200.789 h 40.61 l 40.33,-130.851 40.32,130.851 h 40.9 z m -160.17,0 v 200.789 h 39.2 V 269.695 Z m -82.91,0 -79.52,123.235 V 269.695 h -39.2 v 200.789 h 34.97 l 79.52,-122.957 v 122.957 h 39.2 V 269.695 Z m -169.2,40.047 c -3.761,-8.648 -9.019,-16.125 -15.789,-22.418 -6.765,-6.304 -14.664,-11.097 -23.687,-14.386 -9.027,-3.286 -18.613,-4.934 -28.766,-4.934 -10.148,0 -19.738,1.648 -28.761,4.934 -9.024,3.289 -16.918,8.082 -23.688,14.386 -6.773,6.293 -12.035,13.77 -15.797,22.418 -3.758,8.645 -5.637,18.231 -5.637,28.766 v 131.976 h 39.2 V 339.918 c 0,-11.473 3.14,-20.492 9.445,-27.078 6.297,-6.582 14.707,-9.867 25.238,-9.867 10.715,0 19.223,3.285 25.52,9.867 6.301,6.586 9.449,15.605 9.449,27.078 v 130.566 h 38.913 V 338.508 c 0,-10.535 -1.878,-20.121 -5.64,-28.766 z M 2418.73,537.695 V 738.48 h 132.26 v -34.968 h -93.07 v -47.098 h 79.25 v -34.965 h -79.25 V 572.66 h 93.07 v -34.965 z m -89.39,0 v 84.039 h -67.97 v -84.039 h -39.19 V 738.48 h 39.19 v -82.066 h 67.97 v 82.066 h 39.2 V 537.695 Z m -169.49,14.664 C 2146.5,541.453 2130.24,536 2111.07,536 c -21.43,0 -39.48,7.336 -54.15,21.996 -8.64,8.84 -14.09,18.899 -16.35,30.18 -2.26,11.277 -3.39,27.918 -3.39,49.91 0,21.996 1.13,38.68 3.39,50.059 2.26,11.371 7.71,21.382 16.35,30.027 14.67,14.664 32.72,22 54.15,22 19.36,0 35.67,-5.457 48.93,-16.359 13.25,-10.903 21.57,-26.602 24.95,-47.09 h -39.76 c -2.07,8.644 -5.88,15.55 -11.42,20.722 -5.55,5.172 -13.02,7.758 -22.42,7.758 -10.72,0 -19.08,-3.48 -25.09,-10.433 -2.08,-2.254 -3.72,-4.704 -4.94,-7.332 -1.23,-2.633 -2.16,-5.926 -2.82,-9.872 -0.66,-3.949 -1.18,-9.023 -1.55,-15.226 -0.38,-6.203 -0.57,-14.289 -0.57,-24.254 0,-9.965 0.19,-18.047 0.57,-24.254 0.37,-6.199 0.89,-11.277 1.55,-15.223 0.66,-3.953 1.59,-7.242 2.82,-9.875 1.22,-2.632 2.86,-5.074 4.94,-7.328 6.01,-6.957 14.37,-10.433 25.09,-10.433 9.4,0 16.87,2.582 22.42,7.754 5.54,5.168 9.35,12.078 11.42,20.726 h 39.76 c -3.38,-20.492 -11.75,-36.191 -25.1,-47.094 z m -177.09,-0.144 C 1968.85,541.406 1950.99,536 1929.18,536 c -15.79,0 -29.57,2.023 -41.31,6.066 -11.75,4.043 -22.42,10.86 -32.01,20.442 l 25.38,25.383 c 6.02,-6.02 13.12,-10.34 21.29,-12.973 8.18,-2.633 17.25,-3.945 27.22,-3.945 23.68,0 35.53,8.269 35.53,24.812 0,6.953 -1.79,12.36 -5.36,16.219 -3.57,3.851 -9.78,6.434 -18.61,7.754 l -11.28,1.691 -12.97,1.692 c -17.11,2.441 -30.09,7.988 -38.92,16.64 -9.59,9.582 -14.38,22.742 -14.38,39.477 0,18.23 6.29,32.949 18.89,44.137 12.59,11.179 29.61,16.777 51.04,16.777 14.1,0 26.32,-1.832 36.66,-5.5 10.34,-3.668 19.74,-9.637 28.2,-17.906 l -24.81,-24.536 c -5.64,5.45 -11.89,9.118 -18.75,10.997 -6.87,1.878 -14.35,2.824 -22.43,2.824 -9.96,0 -17.62,-2.399 -22.98,-7.196 -5.36,-4.792 -8.04,-10.851 -8.04,-18.187 0,-5.262 2.07,-10.008 6.21,-14.238 4.13,-4.235 10.24,-6.91 18.33,-8.035 l 12.12,-1.696 11.57,-1.695 c 9.02,-1.313 16.59,-3.199 22.7,-5.641 6.1,-2.441 11.32,-5.73 15.65,-9.867 10.34,-9.773 15.51,-23.969 15.51,-42.582 0,-18.988 -6.96,-33.887 -20.87,-44.699 z m -198.24,-14.52 V 738.48 h 39.2 V 537.695 Z m -85.16,0 -79.53,123.231 V 537.695 h -39.2 V 738.48 h 34.97 l 79.53,-122.953 V 738.48 h 39.19 V 537.695 Z m -208.12,0 v 84.039 h -67.96 v -84.039 h -39.2 V 738.48 h 39.2 v -82.066 h 67.96 v 82.066 h 39.2 V 537.695 Z m -169.48,14.664 C 1308.41,541.453 1292.15,536 1272.97,536 c -21.43,0 -39.48,7.336 -54.14,21.996 -8.65,8.84 -14.1,18.899 -16.35,30.18 -2.27,11.277 -3.39,27.918 -3.39,49.91 0,21.996 1.12,38.68 3.39,50.059 2.25,11.371 7.7,21.382 16.35,30.027 14.66,14.664 32.71,22 54.14,22 19.36,0 35.68,-5.457 48.93,-16.359 13.26,-10.903 21.57,-26.602 24.96,-47.09 h -39.77 c -2.07,8.644 -5.87,15.55 -11.42,20.722 -5.54,5.172 -13.02,7.758 -22.41,7.758 -10.72,0 -19.09,-3.48 -25.1,-10.433 -2.08,-2.254 -3.72,-4.704 -4.94,-7.332 -1.22,-2.633 -2.16,-5.926 -2.82,-9.872 -0.66,-3.949 -1.18,-9.023 -1.55,-15.226 -0.38,-6.203 -0.56,-14.289 -0.56,-24.254 0,-9.965 0.18,-18.047 0.56,-24.254 0.37,-6.199 0.89,-11.277 1.55,-15.223 0.66,-3.953 1.6,-7.242 2.82,-9.875 1.22,-2.632 2.86,-5.074 4.94,-7.328 6.01,-6.957 14.38,-10.433 25.1,-10.433 9.39,0 16.87,2.582 22.41,7.754 5.55,5.168 9.35,12.078 11.42,20.726 h 39.77 c -3.39,-20.492 -11.75,-36.191 -25.1,-47.094 z M 1031.87,537.695 V 738.48 h 132.25 v -34.968 h -93.06 v -47.098 h 79.24 v -34.965 h -79.24 V 572.66 h 93.06 V 537.695 Z M 944.164,703.512 V 537.695 h -39.199 v 165.817 h -52.449 v 34.968 h 144.101 v -34.968 h -52.453" /></g></g></svg>